<?xml version="1.0" standalone="no"?><!DOCTYPE svg PUBLIC "-//W3C//DTD SVG 1.1//EN" "http://www.w3.org/Graphics/SVG/1.1/DTD/svg11.dtd"><svg width="500" height="330" version="1.1" xmlns="http://www.w3.org/2000/svg" xmlns:xlink="http://www.w3.org/1999/xlink"><defs><style class="exported-css" type="text/css">
.axis path, .axis line { fill: none; stroke: rgb(0, 0, 0); shape-rendering: crispedges; }
.axis text { font-family: sans-serif; font-size: 11px; }
.hit { transition: all 0.3s; -webkit-transition: all 0.3s; }
.hit:hover { }
.axis-label { font-size: 11px; }</style></defs><polygon class="hit" fill="rgb(30,139,195)" points="121.12198303979126,61 356.2940482212106,269 408.64609677963244,269 323.66601435094583,61" style="opacity: 1;"></polygon><polygon class="hit" fill="rgb(158,205,229)" points="82.41356816699282,61 455.4914854156129,269 465.4189849940988,269 120.82191780821917,61" style="opacity: 1;"></polygon><polygon class="hit" fill="rgb(159,205,229)" points="391.78082191780817,61 326.8993424380374,269 335.81858034058337,269 426.2883235485975,61" style="opacity: 1;"></polygon><polygon class="hit" fill="rgb(163,208,230)" points="20.30006523157208,61 472.5543753161355,269 480,269 49.10632746249185,61" style="opacity: 1;"></polygon><polygon class="hit" fill="rgb(165,209,231)" points="453.2941943900848,61 284.00944191535996,269 290.912156466026,269 480,61"></polygon><polygon class="hit" fill="rgb(179,216,235)" points="121.12198303979126,61 318.0576631259484,269 320.9273309728545,269 132.22439660795823,61" style="opacity: 1;"></polygon><g class="axis" transform="translate(0,60)"><g class="tick" transform="translate(20,0)" style="opacity: 1;"><line y2="-6" x2="0"></line><text y="-9" x="0" dy="1em" dx="0.8em" transform="rotate(-90)" style="text-anchor: start;">0.0b</text></g><g class="tick" transform="translate(80.01304631441617,0)" style="opacity: 1;"><line y2="-6" x2="0"></line><text y="-9" x="0" dy="1em" dx="0.8em" transform="rotate(-90)" style="text-anchor: start;">200b</text></g><g class="tick" transform="translate(140.02609262883234,0)" style="opacity: 1;"><line y2="-6" x2="0"></line><text y="-9" x="0" dy="1em" dx="0.8em" transform="rotate(-90)" style="text-anchor: start;">400b</text></g><g class="tick" transform="translate(200.03913894324853,0)" style="opacity: 1;"><line y2="-6" x2="0"></line><text y="-9" x="0" dy="1em" dx="0.8em" transform="rotate(-90)" style="text-anchor: start;">600b</text></g><g class="tick" transform="translate(260.0521852576647,0)" style="opacity: 1;"><line y2="-6" x2="0"></line><text y="-9" x="0" dy="1em" dx="0.8em" transform="rotate(-90)" style="text-anchor: start;">800b</text></g><g class="tick" transform="translate(320.06523157208085,0)" style="opacity: 1;"><line y2="-6" x2="0"></line><text y="-9" x="0" dy="1em" dx="0.8em" transform="rotate(-90)" style="text-anchor: start;">1.0kb</text></g><g class="tick" transform="translate(380.07827788649706,0)" style="opacity: 1;"><line y2="-6" x2="0"></line><text y="-9" x="0" dy="1em" dx="0.8em" transform="rotate(-90)" style="text-anchor: start;">1.2kb</text></g><g class="tick" transform="translate(440.0913242009132,0)" style="opacity: 1;"><line y2="-6" x2="0"></line><text y="-9" x="0" dy="1em" dx="0.8em" transform="rotate(-90)" style="text-anchor: start;">1.4kb</text></g><path class="domain" d="M20,-6V0H480V-6"></path></g><g class="axis" transform="translate(0,270)"><g class="tick" transform="translate(20,0)" style="opacity: 1;"><line y2="6" x2="0"></line><text y="9" x="0" dy="-0.4em" dx="-1em" transform="rotate(-90)" style="text-anchor: end;">0.0b</text></g><g class="tick" transform="translate(58.77929522846063,0)" style="opacity: 1;"><line y2="6" x2="0"></line><text y="9" x="0" dy="-0.4em" dx="-1em" transform="rotate(-90)" style="text-anchor: end;">500b</text></g><g class="tick" transform="translate(97.55859045692127,0)" style="opacity: 1;"><line y2="6" x2="0"></line><text y="9" x="0" dy="-0.4em" dx="-1em" transform="rotate(-90)" style="text-anchor: end;">1.0kb</text></g><g class="tick" transform="translate(136.3378856853819,0)" style="opacity: 1;"><line y2="6" x2="0"></line><text y="9" x="0" dy="-0.4em" dx="-1em" transform="rotate(-90)" style="text-anchor: end;">1.5kb</text></g><g class="tick" transform="translate(175.11718091384253,0)" style="opacity: 1;"><line y2="6" x2="0"></line><text y="9" x="0" dy="-0.4em" dx="-1em" transform="rotate(-90)" style="text-anchor: end;">2.0kb</text></g><g class="tick" transform="translate(213.89647614230313,0)" style="opacity: 1;"><line y2="6" x2="0"></line><text y="9" x="0" dy="-0.4em" dx="-1em" transform="rotate(-90)" style="text-anchor: end;">2.5kb</text></g><g class="tick" transform="translate(252.6757713707638,0)" style="opacity: 1;"><line y2="6" x2="0"></line><text y="9" x="0" dy="-0.4em" dx="-1em" transform="rotate(-90)" style="text-anchor: end;">3.0kb</text></g><g class="tick" transform="translate(291.45506659922444,0)" style="opacity: 1;"><line y2="6" x2="0"></line><text y="9" x="0" dy="-0.4em" dx="-1em" transform="rotate(-90)" style="text-anchor: end;">3.5kb</text></g><g class="tick" transform="translate(330.23436182768506,0)" style="opacity: 1;"><line y2="6" x2="0"></line><text y="9" x="0" dy="-0.4em" dx="-1em" transform="rotate(-90)" style="text-anchor: end;">4.0kb</text></g><g class="tick" transform="translate(369.01365705614563,0)" style="opacity: 1;"><line y2="6" x2="0"></line><text y="9" x="0" dy="-0.4em" dx="-1em" transform="rotate(-90)" style="text-anchor: end;">4.5kb</text></g><g class="tick" transform="translate(407.79295228460626,0)" style="opacity: 1;"><line y2="6" x2="0"></line><text y="9" x="0" dy="-0.4em" dx="-1em" transform="rotate(-90)" style="text-anchor: end;">5.0kb</text></g><g class="tick" transform="translate(446.5722475130669,0)" style="opacity: 1;"><line y2="6" x2="0"></line><text y="9" x="0" dy="-0.4em" dx="-1em" transform="rotate(-90)" style="text-anchor: end;">5.5kb</text></g><path class="domain" d="M20,6V0H480V6"></path></g><text class="query axis-label" text-anchor="end" x="250" y="1.1em">Query</text><text class="subject axis-label" text-anchor="end" x="250" y="325">Subject</text></svg>