<?xml version="1.0" encoding="UTF-8" standalone="no"?>
<!-- Created with Inkscape (http://www.inkscape.org/) -->

<svg
   xmlns:dc="http://purl.org/dc/elements/1.1/"
   xmlns:cc="http://creativecommons.org/ns#"
   xmlns:rdf="http://www.w3.org/1999/02/22-rdf-syntax-ns#"
   xmlns:svg="http://www.w3.org/2000/svg"
   xmlns="http://www.w3.org/2000/svg"
   xmlns:sodipodi="http://sodipodi.sourceforge.net/DTD/sodipodi-0.dtd"
   xmlns:inkscape="http://www.inkscape.org/namespaces/inkscape"
   version="1.1"
   width="194.11919"
   height="39.416466"
   id="svg5388"
   inkscape:version="0.48.4 r9939"
   sodipodi:docname="kablammo_logo.svg">
  <sodipodi:namedview
     pagecolor="#ffffff"
     bordercolor="#666666"
     borderopacity="1"
     objecttolerance="10"
     gridtolerance="10"
     guidetolerance="10"
     inkscape:pageopacity="0"
     inkscape:pageshadow="2"
     inkscape:window-width="864"
     inkscape:window-height="969"
     id="namedview10"
     showgrid="false"
     fit-margin-top="0"
     fit-margin-left="0"
     fit-margin-right="0"
     fit-margin-bottom="0"
     inkscape:zoom="1.2685914"
     inkscape:cx="135.89339"
     inkscape:cy="-126.14617"
     inkscape:window-x="1052"
     inkscape:window-y="90"
     inkscape:window-maximized="0"
     inkscape:current-layer="svg5388" />
  <defs
     id="defs5390" />
  <metadata
     id="metadata5393">
    <rdf:RDF>
      <cc:Work
         rdf:about="">
        <dc:format>image/svg+xml</dc:format>
        <dc:type
           rdf:resource="http://purl.org/dc/dcmitype/StillImage" />
        <dc:title />
      </cc:Work>
    </rdf:RDF>
  </metadata>
  <g
     id="layer1"
     transform="translate(-277.94041,-512.65395)">
    <g
       transform="translate(232.95111,497.35819)"
       id="g5302">
      <path
         d="m 239.10844,20.031296 -1.79533,-1.321001 1.17552,-1.894054 -2.15196,0.579904 -0.74796,-2.100385 -0.88818,2.044772 -2.10764,-0.724978 1.04414,1.969815 -0.77133,0.490439 c -2.53682,0.646396 -6.07385,2.324046 -9.09466,7.687037 l -2.56061,-1.709082 -3.02966,4.53888 c -1.28838,-0.432408 -2.66662,-0.670174 -4.10124,-0.670174 -7.12166,0 -12.89529,5.773238 -12.89529,12.89488 0,7.122044 5.77324,12.894877 12.89529,12.894877 7.12203,0 12.89527,-5.772833 12.89527,-12.894877 0,-2.866067 -0.93615,-5.512906 -2.51868,-7.653991 l 3.20619,-4.802838 -2.92048,-1.949666 c 2.97205,-5.328338 6.36483,-6.760968 8.78075,-7.297748 l 0.42435,0.07979 -0.23817,2.216446 1.68773,-1.456811 1.58577,1.568036 -0.0874,-2.227327 2.21362,-0.261943 z m -21.82796,12.204962 c -0.0946,0.201495 -0.33529,0.288138 -0.53558,0.194241 -4.07383,-1.904531 -8.93833,-0.139434 -10.84327,3.935199 -0.0686,0.146285 -0.21357,0.232122 -0.3651,0.232122 -0.0573,0 -0.11524,-0.01208 -0.17047,-0.03788 -0.20149,-0.0943 -0.28854,-0.334079 -0.19425,-0.535979 2.09315,-4.476816 7.43882,-6.416406 11.91443,-4.32368 0.20148,0.09471 0.28854,0.334482 0.19424,0.535978 z m 5.07081,-5.346471 -3.03008,4.538878 c -0.0774,0.116465 -0.20551,0.179332 -0.33569,0.179332 -0.0769,0 -0.15474,-0.02177 -0.22326,-0.0677 -0.18496,-0.123718 -0.23494,-0.373572 -0.11129,-0.558948 l 3.02969,-4.538878 c 0.12371,-0.184974 0.37398,-0.235346 0.55895,-0.111227 0.18498,0.123316 0.23494,0.37317 0.11163,0.558545 z m 13.0718,-6.728324 -0.97888,0.844667 0.11689,-1.088878 c 0.15353,-0.02499 0.30102,-0.04755 0.44086,-0.06891 0.1741,-0.0266 0.33609,-0.05119 0.48641,-0.07696 l -0.19303,-1.146914 c -0.14468,0.02418 -0.30104,0.04836 -0.46828,0.07374 -0.13742,0.02097 -0.2833,0.04351 -0.43604,0.0677 l -0.59439,-1.121117 1.22306,0.420318 0.51502,-1.185598 0.43322,1.217837 1.24927,-0.336094 -0.68226,1.098551 1.04172,0.766487 -1.28472,0.15233 0.0509,1.29239 -0.91964,-0.909548 z"
         id="path5003"
         style="fill:#ffffff;fill-opacity:1"
         inkscape:connector-curvature="0" />
      <text
         x="121.29592"
         y="51.235218"
         id="text5005"
         xml:space="preserve"
         style="font-size:23.58928871px;font-style:normal;font-variant:normal;font-weight:normal;font-stretch:normal;text-align:center;line-height:125%;letter-spacing:0px;word-spacing:0px;text-anchor:middle;fill:#000000;fill-opacity:1;stroke:none;font-family:DejaVu Sans;-inkscape-font-specification:DejaVu Sans"
         sodipodi:linespacing="125%"><tspan
           x="121.29592"
           y="51.235218"
           id="tspan5007"
           style="font-size:34.07341766px;font-style:normal;font-variant:normal;font-weight:bold;font-stretch:normal;fill:#ffffff;fill-opacity:1;font-family:Raleway;-inkscape-font-specification:Raleway">Kablamm</tspan></text>
    </g>
  </g>
</svg>
